<?xml version="1.0" standalone="no"?>
<!DOCTYPE svg PUBLIC "-//W3C//DTD SVG 20010904//EN" "http://www.w3.org/TR/2001/REC-SVG-20010904/DTD/svg10.dtd">
<svg version="1.0" xmlns="http://www.w3.org/2000/svg" width="761.000000pt" height="507.000000pt" viewBox="0 0 761.000000 507.000000" preserveAspectRatio="xMidYMid meet">
	<metadata>
		Created by potrace 1.16, written by Peter Selinger 2001-2019
	</metadata>
	<g transform="translate(0.000000,507.000000) scale(0.100000,-0.100000)" fill="#000000" stroke="none">
		<path d="M3442 2978 c-13 -13 -14 -73 -3 -123 5 -21 2 -33 -9 -42 -8 -6 -15
-17 -15 -25 -1 -28 -17 -125 -27 -170 -10 -38 -19 -53 -51 -74 -49 -32 -73
-85 -57 -124 15 -36 60 -56 89 -41 24 13 55 70 66 120 4 21 23 48 47 71 l41
37 26 -28 c39 -43 73 -47 108 -12 16 15 19 20 8 11 -40 -34 -97 -22 -122 25
-15 29 -16 30 -29 12 -18 -25 -17 -7 1 25 21 37 18 50 -3 15 -11 -16 -27 -37
-37 -45 -17 -14 -18 -13 -11 5 4 11 14 53 22 94 13 68 12 76 -3 93 -14 16 -15
22 -5 36 55 76 54 152 -3 152 -12 0 -26 -5 -33 -12z" />
		<path d="M5183 2982 c-7 -4 -13 -37 -14 -82 -1 -43 -7 -81 -14 -90 -7 -8 -18
-46 -24 -83 -22 -131 -57 -160 -90 -75 -8 22 -6 29 20 54 34 32 37 64 9 89
-26 24 -65 13 -79 -22 -10 -24 -10 -24 -5 -3 4 14 11 60 17 102 12 90 3 111
-47 106 -30 -3 -31 -5 -32 -53 l-1 -50 4 48 c4 47 5 48 36 45 42 -4 45 -27 18
-159 -27 -131 -26 -136 10 -66 21 42 35 57 47 55 9 -2 16 -11 16 -20 -1 -9 4
-14 11 -12 23 9 12 -28 -17 -54 -33 -31 -34 -39 -12 -86 17 -33 43 -50 61 -37
5 3 0 -2 -10 -11 -11 -10 -24 -18 -31 -18 -6 0 -4 5 4 10 8 5 10 10 5 10 -6 0
-16 -5 -23 -12 -15 -15 -41 6 -59 50 -15 35 -28 44 -20 12 3 -11 1 -18 -4 -14
-5 3 -9 -1 -9 -8 0 -7 -3 -24 -7 -37 -4 -17 -3 -22 5 -17 7 4 12 16 12 27 0
26 14 24 34 -6 21 -31 82 -35 116 -7 23 18 24 18 42 0 37 -37 99 -13 124 49 8
19 12 38 9 43 -12 19 -33 10 -45 -20 -27 -66 -39 -19 -20 80 8 41 7 58 -3 73
-11 16 -9 27 15 76 34 68 34 85 6 105 -25 18 -37 19 -55 8z" />
		<path d="M2597 2796 c-8 -19 38 -56 67 -56 31 0 80 -53 72 -77 -3 -11 -26 -32
-51 -47 -24 -16 -42 -33 -39 -38 4 -6 -3 -8 -17 -3 -20 5 -21 4 -9 -5 12 -10
11 -11 -8 -7 -14 3 -20 1 -16 -5 5 -7 -3 -9 -22 -4 -23 5 -26 4 -14 -5 12 -8
7 -9 -20 -5 -25 4 -31 3 -20 -4 11 -7 1 -10 -36 -10 -28 0 -53 -3 -57 -6 -3
-3 -1 -18 4 -32 14 -37 3 -86 -27 -121 -18 -22 -21 -31 -12 -37 7 -4 10 -4 6
1 -12 12 11 35 29 28 12 -5 14 -1 8 18 -7 23 -7 24 9 4 22 -28 20 -33 -11 -38
-28 -4 -28 -4 2 -6 17 0 36 -6 42 -12 9 -9 19 -6 40 11 25 20 25 22 5 15 -12
-3 -21 -3 -20 2 5 14 -34 51 -48 46 -11 -4 -12 3 -7 28 3 19 10 35 14 37 4 2
5 10 2 18 -5 13 -7 13 -15 2 -7 -9 -8 -8 -6 7 3 16 11 20 40 20 20 1 35 -3 32
-6 -2 -4 1 -11 7 -15 8 -4 9 -3 5 4 -8 14 30 36 50 28 8 -3 21 -3 30 1 13 5
13 8 2 15 -9 7 -7 8 10 5 14 -3 20 -1 15 6 -4 6 2 8 15 5 14 -4 20 -2 16 4 -5
7 2 9 21 4 25 -6 26 -5 12 8 -9 9 -24 13 -34 10 -17 -5 -17 -5 0 6 13 8 22 8
39 -4 25 -18 53 -21 43 -6 -3 6 -16 10 -28 10 -22 1 -22 1 -2 16 11 8 20 18
21 22 0 4 3 14 6 22 17 43 15 59 -11 83 -43 40 -91 60 -91 37 0 -5 12 -10 28
-11 15 0 21 -3 14 -6 -17 -7 -64 5 -58 15 2 4 -2 15 -9 25 -11 15 -14 15 -18
3z" />
		<path d="M3279 2286 c-4 -35 0 -176 5 -185 9 -14 69 -9 90 8 10 9 15 30 14 72
0 33 2 62 6 66 3 3 6 -25 6 -63 0 -76 15 -98 61 -87 42 10 49 23 49 89 0 41 4
64 11 64 9 0 10 -22 6 -75 l-5 -75 56 1 c31 1 47 4 35 6 -17 3 -23 12 -24 31
0 24 -1 25 -9 7 -6 -14 -9 0 -9 45 0 45 3 59 9 45 7 -17 9 -15 9 13 1 17 -3
32 -9 32 -14 0 -23 -64 -18 -121 4 -40 2 -49 -11 -49 -13 0 -16 13 -16 79 0
76 -7 103 -22 87 -4 -4 -10 -41 -13 -84 l-5 -77 -36 -3 c-26 -2 -38 2 -42 12
-4 9 -2 16 2 16 5 0 11 -4 13 -10 2 -5 13 -7 26 -4 20 6 22 12 22 68 0 33 -4
66 -8 73 -4 7 -6 -19 -4 -57 4 -58 2 -70 -11 -70 -12 0 -16 15 -19 65 -1 36 1
66 7 68 5 2 4 7 -3 11 -7 4 -12 3 -12 -1 0 -10 -36 -9 -107 2 -24 3 -43 4 -44
1z" />
		<path d="M4596 2245 c2 -24 8 -61 13 -82 14 -49 14 -53 -3 -53 -7 0 -16 9 -19
20 -3 11 -12 20 -20 20 -16 0 -33 -37 -23 -48 4 -3 9 4 13 16 7 27 19 28 26 2
4 -17 14 -20 57 -20 51 0 52 1 46 26 -6 21 -4 25 11 22 10 -2 19 -13 21 -25 4
-25 41 -38 49 -17 4 12 8 12 26 -1 29 -20 60 -19 80 3 18 20 23 77 7 87 -6 4
-5 13 3 25 24 39 -24 81 -71 64 -19 -7 -35 -8 -46 -2 -15 9 -21 0 -17 -25 1
-5 -3 -6 -9 -2 -6 3 -8 11 -5 16 9 13 -9 11 -23 -3 -8 -8 -15 -8 -28 3 -16 12
-17 12 -11 -4 4 -10 7 -21 7 -23 0 -3 4 -3 9 0 5 4 7 -3 4 -14 -3 -11 0 -20 6
-20 6 0 11 6 11 14 0 8 4 17 8 20 4 2 6 -11 4 -30 -2 -18 -8 -31 -13 -28 -5 3
-6 -2 -3 -10 3 -9 1 -16 -5 -16 -7 0 -16 10 -21 23 -7 18 -9 13 -9 -25 -1 -36
-5 -48 -16 -48 -10 0 -15 10 -15 28 0 19 -3 23 -9 13 -9 -14 -21 44 -22 101 0
15 -3 29 -8 32 -4 3 -6 -15 -5 -39z" />
	</g>
</svg>
